<svg width="20" height="16" viewBox="0 0 20 16" fill="none" xmlns="http://www.w3.org/2000/svg">
<path d="M13.3892 8.33343L19.7933 13.8226C19.9296 13.5106 19.9999 13.1739 20 12.8334V4.12427L13.3892 8.33343Z" fill="white"/>
<path d="M10.4483 8.22754L19.91 2.20587C19.7714 1.67145 19.4598 1.19793 19.0239 0.859202C18.5879 0.520469 18.0521 0.335576 17.5 0.333374H2.49997C1.94788 0.335576 1.41205 0.520469 0.97608 0.859202C0.540114 1.19793 0.228537 1.67145 0.0899658 2.20587L9.55247 8.22754C9.6865 8.31226 9.84182 8.35723 10.0004 8.35723C10.1589 8.35723 10.3143 8.31226 10.4483 8.22754Z" fill="white"/>
<path d="M0 4.12427V12.8334C0.000309152 13.1733 0.0706614 13.5095 0.206667 13.8209L6.61083 8.33344L0 4.12427Z" fill="white"/>
<path d="M11.9284 9.2617L11.3451 9.6342C10.9434 9.88788 10.478 10.0225 10.003 10.0225C9.5279 10.0225 9.06256 9.88788 8.66089 9.6342L8.07756 9.26086C8.06506 9.27253 8.06006 9.28836 8.04756 9.2992L1.34839 15.0375C1.70232 15.2288 2.09776 15.3304 2.50006 15.3334H17.5001C17.9026 15.3304 18.2983 15.2288 18.6526 15.0375L11.9584 9.2992C11.9451 9.28836 11.9401 9.27253 11.9284 9.2617Z" fill="white"/>
</svg>
