<svg width="888" height="201" viewBox="0 0 888 201" fill="none" xmlns="http://www.w3.org/2000/svg">
<path d="M887.5 100.5C887.5 107.278 884.468 113.938 878.609 120.419C872.747 126.903 864.078 133.182 852.872 139.178C830.462 151.171 798 161.987 757.845 171.077C677.543 189.253 566.581 200.5 444 200.5C321.419 200.5 210.457 189.253 130.155 171.077C89.9998 161.987 57.5382 151.171 35.1276 139.178C23.922 133.182 15.2532 126.903 9.3914 120.419C3.53223 113.938 0.5 107.278 0.5 100.5C0.5 93.7218 3.53223 87.0622 9.3914 80.5811C15.2532 74.097 23.922 67.8185 35.1276 61.8217C57.5382 49.8286 89.9998 39.0126 130.155 29.9234C210.457 11.7469 321.419 0.5 444 0.5C566.581 0.5 677.543 11.7469 757.845 29.9234C798 39.0126 830.462 49.8286 852.872 61.8217C864.078 67.8185 872.747 74.097 878.609 80.5811C884.468 87.0622 887.5 93.7218 887.5 100.5Z" stroke="white" stroke-opacity="0.5"/>
</svg>
