<svg width="1131" height="277" viewBox="0 0 1131 277" fill="none" xmlns="http://www.w3.org/2000/svg">
<path d="M1130.5 138.5C1130.5 157.332 1114.9 175.421 1086.31 191.978C1057.75 208.514 1016.4 223.422 965.25 235.949C862.964 261 721.631 276.5 565.5 276.5C409.369 276.5 268.036 261 165.75 235.949C114.603 223.422 73.2473 208.514 44.6903 191.978C16.097 175.421 0.5 157.332 0.5 138.5C0.5 119.668 16.097 101.579 44.6903 85.0222C73.2473 68.4865 114.603 53.5781 165.75 41.0514C268.036 15.9998 409.369 0.5 565.5 0.5C721.631 0.5 862.964 15.9998 965.25 41.0514C1016.4 53.5781 1057.75 68.4865 1086.31 85.0222C1114.9 101.579 1130.5 119.668 1130.5 138.5Z" stroke="white" stroke-opacity="0.5"/>
</svg>
