<svg width="1030" height="351" viewBox="0 0 1030 351" fill="none" xmlns="http://www.w3.org/2000/svg">
<path d="M1029.5 175.5C1029.5 199.454 1010.76 222.409 976.537 243.386C942.339 264.346 892.82 283.239 831.586 299.113C709.125 330.859 539.919 350.5 353 350.5C166.081 350.5 -3.12457 330.859 -125.586 299.113C-186.82 283.239 -236.339 264.346 -270.537 243.386C-304.763 222.409 -323.5 199.454 -323.5 175.5C-323.5 151.546 -304.763 128.591 -270.537 107.614C-236.339 86.6541 -186.82 67.7607 -125.586 51.8868C-3.12457 20.1409 166.081 0.5 353 0.5C539.919 0.5 709.125 20.1409 831.586 51.8868C892.82 67.7607 942.339 86.6541 976.537 107.614C1010.76 128.591 1029.5 151.546 1029.5 175.5Z" stroke="white" stroke-opacity="0.5"/>
</svg>
