<svg width="1354" height="351" viewBox="0 0 1354 351" fill="none" xmlns="http://www.w3.org/2000/svg">
<path d="M1353.5 175.5C1353.5 199.454 1334.76 222.409 1300.54 243.386C1266.34 264.346 1216.82 283.239 1155.59 299.113C1033.12 330.859 863.919 350.5 677 350.5C490.081 350.5 320.875 330.859 198.414 299.113C137.18 283.239 87.6613 264.346 53.4633 243.386C19.2368 222.409 0.5 199.454 0.5 175.5C0.5 151.546 19.2368 128.591 53.4633 107.614C87.6613 86.6541 137.18 67.7607 198.414 51.8868C320.875 20.1409 490.081 0.5 677 0.5C863.919 0.5 1033.12 20.1409 1155.59 51.8868C1216.82 67.7607 1266.34 86.6541 1300.54 107.614C1334.76 128.591 1353.5 151.546 1353.5 175.5Z" stroke="white" stroke-opacity="0.5"/>
</svg>
