<svg width="1231" height="428" viewBox="0 0 1231 428" fill="none" xmlns="http://www.w3.org/2000/svg">
<path d="M1230.5 214C1230.5 243.281 1208.57 271.299 1168.61 296.877C1128.67 322.441 1070.84 345.481 999.337 364.838C856.339 403.55 658.759 427.5 440.5 427.5C222.241 427.5 24.6615 403.55 -118.337 364.838C-189.84 345.481 -247.668 322.441 -287.609 296.877C-327.573 271.299 -349.5 243.281 -349.5 214C-349.5 184.719 -327.573 156.701 -287.609 131.123C-247.668 105.559 -189.84 82.5187 -118.337 63.1618C24.6615 24.4499 222.241 0.5 440.5 0.5C658.759 0.5 856.339 24.4499 999.337 63.1618C1070.84 82.5187 1128.67 105.559 1168.61 131.123C1208.57 156.701 1230.5 184.719 1230.5 214Z" stroke="white" stroke-opacity="0.5"/>
</svg>
