<svg width="1418" height="503" viewBox="0 0 1418 503" fill="none" xmlns="http://www.w3.org/2000/svg">
<path d="M1417.5 251.5C1417.5 285.962 1392.13 318.913 1345.94 348.976C1299.78 379.025 1232.94 406.106 1150.31 428.855C985.053 474.353 756.724 502.5 504.5 502.5C252.276 502.5 23.9473 474.353 -141.309 428.855C-223.941 406.106 -290.775 379.025 -336.94 348.976C-383.126 318.913 -408.5 285.962 -408.5 251.5C-408.5 217.038 -383.126 184.087 -336.94 154.024C-290.775 123.975 -223.941 96.8945 -141.309 74.1447C23.9473 28.6471 252.276 0.5 504.5 0.5C756.724 0.5 985.053 28.6471 1150.31 74.1447C1232.94 96.8945 1299.78 123.975 1345.94 154.024C1392.13 184.087 1417.5 217.038 1417.5 251.5Z" stroke="white" stroke-opacity="0.5"/>
</svg>
