<svg width="1619" height="575" viewBox="0 0 1619 575" fill="none" xmlns="http://www.w3.org/2000/svg">
<path d="M1618.5 287.5C1618.5 326.931 1589.27 364.617 1536.1 398.988C1482.95 433.345 1406.01 464.304 1310.89 490.311C1120.66 542.323 857.832 574.5 567.5 574.5C277.168 574.5 14.3391 542.323 -175.891 490.311C-271.01 464.304 -347.949 433.345 -401.096 398.988C-454.266 364.617 -483.5 326.931 -483.5 287.5C-483.5 248.069 -454.266 210.383 -401.096 176.012C-347.949 141.655 -271.01 110.696 -175.891 84.6891C14.3391 32.6766 277.168 0.5 567.5 0.5C857.832 0.5 1120.66 32.6766 1310.89 84.6891C1406.01 110.696 1482.95 141.655 1536.1 176.012C1589.27 210.383 1618.5 248.069 1618.5 287.5Z" stroke="white" stroke-opacity="0.5"/>
</svg>
