<svg width="1820" height="648" viewBox="0 0 1820 648" fill="none" xmlns="http://www.w3.org/2000/svg">
<path d="M1819.5 324C1819.5 368.47 1786.45 410.957 1726.37 449.695C1666.31 488.419 1579.38 523.31 1471.91 552.62C1256.98 611.238 960.026 647.5 632 647.5C303.974 647.5 7.02051 611.238 -207.911 552.62C-315.381 523.31 -402.315 488.419 -462.37 449.695C-522.448 410.957 -555.5 368.47 -555.5 324C-555.5 279.53 -522.448 237.043 -462.37 198.305C-402.315 159.581 -315.381 124.69 -207.911 95.3798C7.02051 36.762 303.974 0.5 632 0.5C960.026 0.5 1256.98 36.762 1471.91 95.3798C1579.38 124.69 1666.31 159.581 1726.37 198.305C1786.45 237.043 1819.5 279.53 1819.5 324Z" stroke="white" stroke-opacity="0.5"/>
</svg>
